<?xml version="1.0" encoding="utf-8"?>
<!-- Generator: Adobe Illustrator 18.1.0, SVG Export Plug-In . SVG Version: 6.00 Build 0)  -->
<!DOCTYPE svg PUBLIC "-//W3C//DTD SVG 1.1//EN" "http://www.w3.org/Graphics/SVG/1.1/DTD/svg11.dtd">
<svg version="1.1" id="Layer_1" xmlns="http://www.w3.org/2000/svg" xmlns:xlink="http://www.w3.org/1999/xlink" x="0px" y="0px"
	 viewBox="0 0 360 360" enable-background="new 0 0 360 360" xml:space="preserve">
<g>
	<path fill="#EF4629" d="M318.6,110c0,0.5-0.2,0.9-0.5,1.4c-6,9.7-74.6,17.4-158.5,17.4S7.1,121.1,1.1,111.4
		c-0.4-0.5-0.5-0.9-0.5-1.4c0-0.5,0.2-0.9,0.5-1.4c5.8-9.7,74.5-17.4,158.5-17.4s152.7,7.7,158.5,17.4
		C318.4,109.1,318.6,109.6,318.6,110z"/>
	<path fill="#BC3526" d="M296.9,109.5c0,0.3,0,0.6-0.1,0.9c-5.3,6.5-65.3,11.6-138.5,11.6S25,116.9,19.8,110.5
		c-0.1-0.3-0.1-0.6-0.1-0.9s0-0.6,0.1-0.9C24.8,102.1,84.9,97,158.3,97s133.5,5.1,138.5,11.6C296.9,108.9,296.9,109.2,296.9,109.5z"
		/>
	<path fill="#EF4629" d="M317,126.8c0.7-5.3,1.5-12.2,1.5-17.7c-6,9.7-75.2,18.8-159,18.8s-153-9.1-159-18.8
		c0.7,86.9,71.9,158.5,159,158.5c47.7,0,90.5-21.1,119.4-54.4c8.5,7.2,19.4,11.4,31.4,11.4c27.1,0,49.2-22.1,49.2-49.2
		C359.6,150.5,341.1,130,317,126.8z M310.4,204.2c-7.2,0-13.9-2.7-19-7.2c-6-5.2-9.8-13-9.8-21.6c0-15.9,12.9-28.8,28.8-28.8
		c1.1,0,2.1,0.1,3.1,0.2c14.4,1.5,25.7,13.8,25.7,28.6C339.1,191.3,326.3,204.2,310.4,204.2z"/>
</g>
</svg>
