<?xml version="1.0" encoding="utf-8"?>
<!-- Generator: Adobe Illustrator 18.1.0, SVG Export Plug-In . SVG Version: 6.00 Build 0)  -->
<!DOCTYPE svg PUBLIC "-//W3C//DTD SVG 1.1//EN" "http://www.w3.org/Graphics/SVG/1.1/DTD/svg11.dtd">
<svg version="1.1" id="Layer_1" xmlns="http://www.w3.org/2000/svg" xmlns:xlink="http://www.w3.org/1999/xlink" x="0px" y="0px"
	 viewBox="487 208 360 360" enable-background="new 487 208 360 360" xml:space="preserve">
<g>
	<path fill="#EF4629" d="M539.7,372.5c5.3-1.4,31.7,19.5,60.7,48.4c29,28.8,50.1,55,48.7,60.4c-0.1,0.3-0.1,0.5-0.3,0.7
		s-0.3,0.3-0.7,0.3c-5.4,1.3-31.7-19.6-60.7-48.4c-29-28.8-50-55-48.7-60.4c0.1-0.3,0.1-0.5,0.3-0.7
		C539.2,372.6,539.5,372.5,539.7,372.5z"/>
	<path fill="#BC3526" d="M547.1,379.8c4-0.5,26.4,18.3,51.8,43.5c25.3,25.2,44.3,47.5,43.8,51.5c-0.1,0.1-0.2,0.2-0.3,0.3
		c-0.1,0.1-0.2,0.2-0.3,0.3c-4,0.4-26.5-18.4-51.8-43.5c-25.3-25.1-44.2-47.4-43.8-51.5c0.1-0.1,0.2-0.2,0.3-0.3
		C546.8,379.9,546.9,379.8,547.1,379.8z"/>
	<path fill="#EF4629" d="M502.5,381.3c-9.3,9.4-9.2,24.6,0.1,33.9c4.1,4.1,9.3,6.4,14.7,6.8c-1.4,21.4,6.1,43.4,22.6,59.7
		c30.1,29.9,79.2,29.6,109.2-0.2c-5.4,1.3-32.4-19.3-61.3-48c-28.9-28.7-49.7-55.6-48.4-61c-1.9,1.9-4,4.6-5.6,6.6
		C524.5,372,511,372.7,502.5,381.3z M509.5,388.3c5.1-5.1,13.2-5.5,18.7-1.1c0.4,0.3,0.8,0.6,1.1,1c5.5,5.5,5.5,14.3,0.1,19.8
		c-2.9,3-6.9,4.4-10.8,4.1c-3.3-0.2-6.5-1.6-9-4C504.1,402.7,504.1,393.8,509.5,388.3z"/>
</g>
<path fill="#4C330A" d="M837.6,554.8c0,4.9-32.3,8.9-72.1,8.9s-72.1-4-72.1-8.9c0-0.3,0.2-0.7,0.5-1c-22.8-1.5-38.3-4.4-38.3-7.8
	c0-0.6,0.5-1.2,1.4-1.8c-17.6-1.6-28.9-4.2-28.9-7.1c0-3.4,15.5-6.3,38.3-7.8c-0.3-0.3-0.5-0.7-0.5-1c0-4.9,32.3-8.9,72.1-8.9
	s72.1,4,72.1,8.9c0,1.1-1.6,2.2-4.6,3.1c10.7,1.5,17.2,3.6,17.2,5.8c0,2.7-9.7,5.1-25,6.7c1.4,0.7,2.1,1.4,2.1,2.2
	c0,0.3-0.2,0.7-0.5,1C822.1,548.4,837.6,551.4,837.6,554.8z"/>
<polygon fill="#4C330A" points="642.4,475.2 649.2,476.5 654.9,541.5 642.4,534.2 "/>
<path fill="#4C330A" d="M627.2,452.9c19.5,20.2,22.4,20.5,22,23.9c-0.1,0.1-7-1.7-7.1-1.6c-0.1,0.1,7.2,1.5,7.1,1.6
	c-3.5,0.4-3.5,7.3-24.6-12.9C621.4,460.8,623.6,449.2,627.2,452.9z"/>
<rect x="511.3" y="247.3" fill="#EAEAEA" width="3.3" height="93.3"/>
<rect x="525.7" y="213.3" fill="#EAEAEA" width="3.3" height="93.3"/>
<rect x="539.1" y="260" fill="#EAEAEA" width="3.3" height="93.3"/>
<rect x="555.7" y="213.3" fill="#EAEAEA" width="3.3" height="93.3"/>
<rect x="569.1" y="270" fill="#EAEAEA" width="3.3" height="93.3"/>
</svg>
