<?xml version="1.0" encoding="utf-8"?>
<!-- Generator: Adobe Illustrator 18.1.1, SVG Export Plug-In . SVG Version: 6.00 Build 0)  -->
<!DOCTYPE svg PUBLIC "-//W3C//DTD SVG 1.1//EN" "http://www.w3.org/Graphics/SVG/1.1/DTD/svg11.dtd">
<svg version="1.1" id="Layer_1" xmlns="http://www.w3.org/2000/svg" xmlns:xlink="http://www.w3.org/1999/xlink" x="0px" y="0px"
	 width="922px" height="81px" viewBox="17 208 922 81" enable-background="new 17 208 922 81" xml:space="preserve">
<g>
	<g enable-background="new    ">
		<path fill="#F55638" d="M54.1,270.1c0,2.4-0.5,4.8-1.4,7c-0.9,2.2-2.2,4.1-3.8,5.8c-1.6,1.7-3.5,3-5.7,4c-2.2,1-4.5,1.5-7,1.5
			c-2.1,0-4.3-0.3-6.5-0.9s-4.2-1.6-6-3c-1.8-1.4-3.2-3.3-4.4-5.7c-1.1-2.4-1.7-5.3-1.7-9v-43.3c0-2.6,0.4-5,1.3-7.2
			s2.1-4.1,3.8-5.7c1.6-1.6,3.6-2.9,5.8-3.8c2.2-0.9,4.7-1.4,7.5-1.4c2.6,0,5,0.5,7.2,1.4c2.2,0.9,4.1,2.2,5.7,3.9
			c1.6,1.7,2.9,3.6,3.8,6c0.9,2.3,1.4,4.8,1.4,7.6v4.4H42.8v-3.8c0-2.2-0.6-4.1-1.9-5.7c-1.3-1.6-2.9-2.4-5.1-2.4
			c-2.8,0-4.7,0.9-5.6,2.6c-0.9,1.7-1.4,3.9-1.4,6.6V269c0,2.3,0.5,4.2,1.5,5.7c1,1.5,2.8,2.3,5.4,2.3c0.7,0,1.5-0.1,2.4-0.4
			c0.8-0.3,1.6-0.7,2.3-1.3c0.7-0.6,1.3-1.4,1.7-2.4c0.4-1,0.7-2.3,0.7-3.9v-3.9h11.3V270.1z"/>
		<path fill="#F55638" d="M70.6,227.6c0-3.2,0.6-6,1.7-8.4c1.1-2.4,2.6-4.4,4.4-6c1.8-1.6,3.8-2.8,6.1-3.6c2.2-0.8,4.5-1.2,6.8-1.2
			c2.3,0,4.5,0.4,6.8,1.2c2.2,0.8,4.3,2,6.1,3.6c1.8,1.6,3.3,3.6,4.4,6c1.1,2.4,1.7,5.2,1.7,8.4v41.6c0,3.2-0.6,6.1-1.7,8.5
			c-1.1,2.4-2.6,4.4-4.4,6c-1.8,1.6-3.8,2.8-6.1,3.6c-2.2,0.8-4.5,1.2-6.8,1.2c-2.3,0-4.6-0.4-6.8-1.2c-2.2-0.8-4.3-2-6.1-3.6
			c-1.8-1.6-3.3-3.6-4.4-6c-1.1-2.4-1.7-5.2-1.7-8.5V227.6z M81.9,269.2c0,2.7,0.8,4.7,2.3,6c1.5,1.3,3.3,1.9,5.4,1.9
			c2.1,0,3.8-0.6,5.4-1.9c1.5-1.3,2.3-3.3,2.3-6v-41.6c0-2.7-0.8-4.7-2.3-6c-1.5-1.3-3.3-1.9-5.4-1.9c-2.1,0-3.9,0.6-5.4,1.9
			c-1.5,1.3-2.3,3.3-2.3,6V269.2z"/>
		<path fill="#F55638" d="M126.3,209h11.3v67.4h22.3v11.3h-33.6V209z"/>
		<path fill="#F55638" d="M174.5,227.6c0-3.2,0.6-6,1.7-8.4c1.1-2.4,2.6-4.4,4.4-6c1.8-1.6,3.8-2.8,6.1-3.6c2.2-0.8,4.5-1.2,6.8-1.2
			c2.3,0,4.5,0.4,6.8,1.2c2.2,0.8,4.3,2,6.1,3.6c1.8,1.6,3.3,3.6,4.4,6c1.1,2.4,1.7,5.2,1.7,8.4v41.6c0,3.2-0.6,6.1-1.7,8.5
			c-1.1,2.4-2.6,4.4-4.4,6c-1.8,1.6-3.8,2.8-6.1,3.6c-2.2,0.8-4.5,1.2-6.8,1.2c-2.3,0-4.6-0.4-6.8-1.2c-2.2-0.8-4.3-2-6.1-3.6
			c-1.8-1.6-3.3-3.6-4.4-6c-1.1-2.4-1.7-5.2-1.7-8.5V227.6z M185.8,269.2c0,2.7,0.8,4.7,2.3,6c1.5,1.3,3.3,1.9,5.4,1.9
			c2.1,0,3.8-0.6,5.4-1.9c1.5-1.3,2.3-3.3,2.3-6v-41.6c0-2.7-0.8-4.7-2.3-6c-1.5-1.3-3.3-1.9-5.4-1.9c-2.1,0-3.9,0.6-5.4,1.9
			c-1.5,1.3-2.3,3.3-2.3,6V269.2z"/>
		<path fill="#F55638" d="M230.2,209H241l14.5,41.7h0.2l14.4-41.7H281v78.7h-11.3v-47.9h-0.2l-11.2,33.8h-5.6l-11.1-33.8h-0.2v47.9
			h-11.3V209z"/>
		<path fill="#F55638" d="M299.6,209h16.5c3.6,0,6.7,0.6,9.2,1.7c2.5,1.1,4.6,2.6,6.2,4.4c1.6,1.8,2.8,4,3.5,6.4
			c0.7,2.4,1.1,4.9,1.1,7.5v2.9c0,2.1-0.2,3.9-0.5,5.4c-0.3,1.5-0.8,2.8-1.5,3.9c-0.7,1.1-1.5,2.1-2.4,2.9c-1,0.8-2.1,1.6-3.3,2.4
			c2.7,1.3,4.6,3.1,5.9,5.6c1.3,2.5,1.9,5.8,1.9,9.9v4.4c0,6.9-1.7,12.2-5,15.9c-3.4,3.7-8.7,5.5-16.1,5.5h-15.4V209z M310.9,241.3
			h5.1c3.8,0,6.3-0.9,7.6-2.8c1.3-1.9,1.9-4.6,1.9-8.2c0-3.5-0.7-6.2-2.2-8s-4-2.7-7.8-2.7h-4.6V241.3z M310.9,276.4h4.9
			c2.3,0,4.1-0.3,5.4-1c1.3-0.7,2.3-1.6,2.9-2.8c0.7-1.2,1.1-2.6,1.2-4.2c0.1-1.6,0.2-3.4,0.2-5.3c0-2-0.1-3.7-0.3-5.2
			c-0.2-1.5-0.7-2.7-1.4-3.7c-0.7-1-1.7-1.7-2.9-2.3c-1.3-0.5-2.9-0.8-5-0.8h-5V276.4z"/>
		<path fill="#F55638" d="M355,209h11.3v78.7H355V209z"/>
		<path fill="#F55638" d="M384.7,209h10.8l17,47.4h0.2V209H424v78.7h-10.6l-17.2-47.3H396v47.3h-11.3V209z"/>
		<path fill="#F55638" d="M454.7,209h9.4l17.6,78.7h-11.3l-3.3-16.9h-15.4l-3.3,16.9h-11.3L454.7,209z M459.4,231.7h-0.2l-5.5,28.5
			h11.3L459.4,231.7z"/>
	</g>
	<g enable-background="new    ">
		<path fill="#F55638" d="M587.9,209h9.4l17.6,78.7h-11.3l-3.3-16.9h-15.4l-3.3,16.9h-11.3L587.9,209z M592.7,231.7h-0.2l-5.5,28.5
			h11.3L592.7,231.7z"/>
		<path fill="#F55638" d="M627.9,209h10.8l17,47.4h0.2V209h11.3v78.7h-10.6l-17.2-47.3h-0.2v47.3h-11.3V209z"/>
		<path fill="#F55638" d="M681.8,277.8l21.2-58.1h-20.1V209h32.4v9l-21.7,59.1h21.7v10.6h-33.5V277.8z"/>
		<path fill="#F55638" d="M730.5,209h11.3v78.7h-11.3V209z"/>
		<path fill="#F55638" d="M782.8,287.7h-9.9l-16-78.7h11.9l9,54.9h0.2L787,209h11.9L782.8,287.7z"/>
		<path fill="#F55638" d="M813.9,209h11.3v78.7h-11.3V209z"/>
		<path fill="#F55638" d="M843.7,209h10.8l17,47.4h0.2V209H883v78.7h-10.6l-17.2-47.3h-0.2v47.3h-11.3V209z"/>
		<path fill="#F55638" d="M900.5,227.6c0-3.2,0.6-6,1.7-8.4s2.6-4.4,4.4-6c1.8-1.6,3.8-2.8,6.1-3.6c2.2-0.8,4.5-1.2,6.8-1.2
			c2.3,0,4.5,0.4,6.8,1.2c2.2,0.8,4.3,2,6.1,3.6c1.8,1.6,3.3,3.6,4.4,6s1.7,5.2,1.7,8.4v41.6c0,3.2-0.6,6.1-1.7,8.5
			c-1.1,2.4-2.6,4.4-4.4,6c-1.8,1.6-3.8,2.8-6.1,3.6c-2.2,0.8-4.5,1.2-6.8,1.2c-2.3,0-4.6-0.4-6.8-1.2c-2.2-0.8-4.3-2-6.1-3.6
			c-1.8-1.6-3.3-3.6-4.4-6c-1.1-2.4-1.7-5.2-1.7-8.5V227.6z M911.8,269.2c0,2.7,0.8,4.7,2.3,6c1.5,1.3,3.3,1.9,5.4,1.9
			c2.1,0,3.8-0.6,5.4-1.9c1.5-1.3,2.3-3.3,2.3-6v-41.6c0-2.7-0.8-4.7-2.3-6c-1.5-1.3-3.3-1.9-5.4-1.9c-2.1,0-3.9,0.6-5.4,1.9
			c-1.5,1.3-2.3,3.3-2.3,6V269.2z"/>
	</g>
</g>
</svg>
