<?xml version="1.0" encoding="utf-8"?>
<!-- Generator: Adobe Illustrator 18.1.1, SVG Export Plug-In . SVG Version: 6.00 Build 0)  -->
<!DOCTYPE svg PUBLIC "-//W3C//DTD SVG 1.1//EN" "http://www.w3.org/Graphics/SVG/1.1/DTD/svg11.dtd">
<svg version="1.1" id="Layer_1" xmlns="http://www.w3.org/2000/svg" xmlns:xlink="http://www.w3.org/1999/xlink" x="0px" y="0px"
	 width="960px" height="560px" viewBox="0 0 960 560" enable-background="new 0 0 960 560" xml:space="preserve">
<g enable-background="new    ">
	<path fill="#F55638" d="M175.4,216.2c0,3.4-0.6,6.7-1.9,9.8c-1.3,3.1-3.1,5.9-5.4,8.1s-4.9,4.2-8,5.6c-3,1.4-6.3,2.1-9.9,2.1
		c-3,0-6-0.5-9.2-1.3c-3.1-0.8-5.9-2.3-8.4-4.3c-2.5-2-4.6-4.7-6.1-8c-1.6-3.3-2.4-7.5-2.4-12.5v-60.8c0-3.7,0.6-7,1.8-10.1
		c1.2-3.1,3-5.8,5.3-8.1s5-4,8.1-5.4c3.2-1.3,6.7-1.9,10.5-1.9c3.7,0,7,0.6,10.1,1.9c3.1,1.3,5.8,3.1,8.1,5.4s4,5.1,5.4,8.4
		c1.3,3.3,1.9,6.8,1.9,10.6v6.2h-15.8v-5.3c0-3.1-0.9-5.8-2.7-8.1c-1.7-2.3-4.1-3.4-7.1-3.4c-3.9,0-6.6,1.2-7.9,3.7
		c-1.3,2.5-1.9,5.5-1.9,9.2v56.5c0,3.2,0.7,5.9,2.1,8.1c1.4,2.2,3.9,3.3,7.5,3.3c1,0,2.1-0.2,3.3-0.5c1.2-0.4,2.3-0.9,3.3-1.8
		c1-0.8,1.8-1.9,2.4-3.4c0.6-1.5,0.9-3.3,0.9-5.4v-5.4h15.8L175.4,216.2L175.4,216.2z"/>
	<path fill="#F55638" d="M204.6,156.4c0-4.5,0.7-8.4,2.3-11.8c1.6-3.4,3.6-6.2,6.1-8.4c2.6-2.2,5.4-3.9,8.5-5
		c3.2-1.1,6.3-1.7,9.5-1.7c3.2,0,6.4,0.5,9.5,1.7c3.2,1.1,6,2.8,8.5,5c2.6,2.2,4.6,5,6.1,8.4c1.6,3.4,2.3,7.3,2.3,11.8v58.4
		c0,4.6-0.7,8.5-2.3,11.9c-1.6,3.4-3.6,6.1-6.1,8.4c-2.6,2.2-5.4,3.9-8.5,5c-3.2,1.1-6.3,1.7-9.5,1.7c-3.2,0-6.4-0.5-9.5-1.7
		c-3.2-1.1-6-2.8-8.5-5c-2.6-2.2-4.6-5-6.1-8.4c-1.6-3.4-2.3-7.3-2.3-11.9V156.4z M220.5,214.8c0,3.8,1.1,6.7,3.2,8.4
		c2.1,1.8,4.7,2.7,7.5,2.7c2.9,0,5.4-0.9,7.5-2.7c2.1-1.8,3.2-4.7,3.2-8.4v-58.4c0-3.8-1.1-6.7-3.2-8.4c-2.1-1.8-4.7-2.7-7.5-2.7
		c-2.9,0-5.4,0.9-7.5,2.7s-3.2,4.7-3.2,8.4C220.5,156.4,220.5,214.8,220.5,214.8z"/>
	<path fill="#F55638" d="M288.9,130.3h15.8V225h31.4v15.8h-47.2V130.3L288.9,130.3z"/>
	<path fill="#F55638" d="M362.7,156.4c0-4.5,0.7-8.4,2.3-11.8c1.6-3.4,3.6-6.2,6.1-8.4c2.6-2.2,5.4-3.9,8.5-5
		c3.2-1.1,6.3-1.7,9.5-1.7c3.2,0,6.4,0.5,9.5,1.7c3.2,1.1,6,2.8,8.5,5c2.6,2.2,4.6,5,6.1,8.4s2.3,7.3,2.3,11.8v58.4
		c0,4.6-0.7,8.5-2.3,11.9s-3.6,6.1-6.1,8.4c-2.6,2.2-5.4,3.9-8.5,5c-3.2,1.1-6.3,1.7-9.5,1.7c-3.2,0-6.4-0.5-9.5-1.7
		c-3.2-1.1-6-2.8-8.5-5c-2.6-2.2-4.6-5-6.1-8.4c-1.6-3.4-2.3-7.3-2.3-11.9V156.4z M378.5,214.8c0,3.8,1.1,6.7,3.2,8.4
		c2.1,1.8,4.7,2.7,7.5,2.7c2.9,0,5.4-0.9,7.5-2.7s3.2-4.7,3.2-8.4v-58.4c0-3.8-1.1-6.7-3.2-8.4c-2.1-1.8-4.7-2.7-7.5-2.7
		c-2.9,0-5.4,0.9-7.5,2.7c-2.1,1.8-3.2,4.7-3.2,8.4V214.8z"/>
	<path fill="#F55638" d="M447.1,130.3h15.2l20.3,58.6h0.3l20.2-58.6h15.4v110.5h-15.8v-67.3h-0.3l-15.6,47.5h-8l-15.6-47.5h-0.3
		v67.3h-15.8V130.3z"/>
	<path fill="#F55638" d="M550.6,130.3h23.2c5,0,9.4,0.7,13,2.3c3.6,1.6,6.5,3.7,8.8,6.2c2.3,2.6,3.9,5.6,4.8,9
		c1,3.4,1.5,6.9,1.5,10.5v4c0,3-0.3,5.6-0.7,7.6c-0.5,2.1-1.2,3.8-2.1,5.4s-2.1,2.9-3.4,4.1c-1.4,1.2-2.9,2.3-4.7,3.3
		c3.8,1.7,6.5,4.4,8.2,7.9s2.7,8.1,2.7,13.9v6.2c0,9.7-2.4,17.2-7,22.3c-4.8,5.2-12.3,7.8-22.6,7.8h-21.6L550.6,130.3L550.6,130.3z
		 M566.5,175.7h7.1c5.3,0,8.8-1.3,10.6-3.9c1.8-2.7,2.7-6.5,2.7-11.5c0-4.9-1-8.7-3-11.2c-2-2.5-5.7-3.8-11-3.8h-6.5L566.5,175.7
		L566.5,175.7z M566.5,225h6.9c3.2,0,5.7-0.5,7.5-1.4c1.8-0.9,3.2-2.2,4.1-3.8s1.5-3.7,1.7-5.9c0.2-2.3,0.3-4.8,0.3-7.4
		c0-2.8-0.2-5.2-0.5-7.3c-0.3-2.1-0.9-3.8-1.9-5.2c-1-1.4-2.4-2.5-4.1-3.2c-1.7-0.7-4.1-1.1-7-1.1h-7L566.5,225L566.5,225z"/>
	<path fill="#F55638" d="M634.5,130.3h15.8v110.5h-15.8V130.3z"/>
	<path fill="#F55638" d="M682.3,130.3h15.2l23.9,66.6h0.3v-66.6h15.8v110.5h-14.9l-24.2-66.4h-0.3v66.4h-15.8L682.3,130.3
		L682.3,130.3z"/>
	<path fill="#F55638" d="M786.7,130.3h13.2l24.7,110.5h-15.8l-4.7-23.8h-21.6l-4.7,23.8H762L786.7,130.3z M793.4,162.1h-0.3
		l-7.8,40.1h15.8L793.4,162.1z"/>
</g>
<g enable-background="new    ">
	<path fill="#F55638" d="M142.6,316.7h13.2l24.7,110.5h-15.8l-4.7-23.8h-21.6l-4.7,23.8h-15.8L142.6,316.7z M149.3,348.5H149
		l-7.8,40.1h15.8L149.3,348.5z"/>
	<path fill="#F55638" d="M204.9,316.7h15.2l23.9,66.6h0.3v-66.6h15.8v110.6h-14.9L221,360.8h-0.3v66.5h-15.8V316.7z"/>
	<path fill="#F55638" d="M286.7,413.3l29.8-81.7h-28.3v-14.9h45.5v12.5l-30.5,83.1h30.5v15h-47V413.3L286.7,413.3z"/>
	<path fill="#F55638" d="M361.1,316.7H377v110.6h-15.8V316.7z"/>
	<path fill="#F55638" d="M440.7,427.3h-14l-22.5-110.5h16.7l12.5,77.2h0.3l12.7-77.2h16.7L440.7,427.3z"/>
	<path fill="#F55638" d="M490.5,316.7h15.8v110.6h-15.8V316.7z"/>
	<path fill="#F55638" d="M538.4,316.7h15.2l23.9,66.6h0.3v-66.6h15.8v110.6h-14.9l-24.2-66.4h-0.3v66.4h-15.8L538.4,316.7
		L538.4,316.7z"/>
	<path fill="#F55638" d="M624.2,342.8c0-4.5,0.7-8.4,2.3-11.8c1.6-3.4,3.6-6.2,6.1-8.4c2.6-2.2,5.4-3.9,8.5-5
		c3.2-1.1,6.3-1.7,9.5-1.7c3.2,0,6.4,0.5,9.5,1.7c3.2,1.1,6,2.8,8.5,5c2.6,2.2,4.6,5,6.1,8.4c1.6,3.4,2.3,7.3,2.3,11.8v58.4
		c0,4.6-0.7,8.5-2.3,11.9s-3.6,6.1-6.1,8.4c-2.6,2.2-5.4,3.9-8.5,5c-3.2,1.1-6.3,1.7-9.5,1.7c-3.2,0-6.4-0.5-9.5-1.7
		c-3.2-1.1-6-2.8-8.5-5c-2.6-2.2-4.6-5-6.1-8.4c-1.6-3.4-2.3-7.3-2.3-11.9V342.8z M640,401.2c0,3.8,1.1,6.7,3.2,8.4
		c2.1,1.8,4.7,2.7,7.5,2.7c2.9,0,5.4-0.9,7.5-2.7c2.1-1.8,3.2-4.7,3.2-8.4v-58.4c0-3.8-1.1-6.7-3.2-8.4c-2.1-1.8-4.7-2.7-7.5-2.7
		c-2.9,0-5.4,0.9-7.5,2.7c-2.1,1.8-3.2,4.7-3.2,8.4V401.2z"/>
</g>
</svg>
